<?xml version="1.0" standalone="no"?>
<!DOCTYPE svg PUBLIC "-//W3C//DTD SVG 20010904//EN"
 "http://www.w3.org/TR/2001/REC-SVG-20010904/DTD/svg10.dtd">
<svg version="1.0" xmlns="http://www.w3.org/2000/svg"
 width="410.000000pt" height="410.000000pt" viewBox="0 0 410.000000 410.000000"
 preserveAspectRatio="xMidYMid meet">

<g transform="translate(0.000000,410.000000) scale(0.100000,-0.100000)"
fill="#000000" stroke="none">
<path d="M0 2050 l0 -2050 2050 0 2050 0 0 2050 0 2050 -2050 0 -2050 0 0
-2050z m1010 1640 l0 -400 -500 0 -500 0 0 400 0 400 500 0 500 0 0 -400z m0
-820 l0 -400 -500 0 -500 0 0 400 0 400 500 0 500 0 0 -400z m0 -820 l0 -400
-500 0 -500 0 0 400 0 400 500 0 500 0 0 -400z m0 -820 l0 -400 -500 0 -500 0
0 400 0 400 500 0 500 0 0 -400z m0 -820 l0 -400 -500 0 -500 0 0 400 0 400
500 0 500 0 0 -400z"/>
<path d="M477 3733 c-17 -16 -5 -42 23 -52 33 -11 41 -41 11 -41 -11 0 -23 5
-26 10 -3 6 -11 10 -17 10 -7 0 -6 -6 2 -15 16 -19 54 -19 70 0 18 22 6 42
-29 50 -17 4 -31 11 -31 16 0 15 30 23 43 10 17 -17 31 -13 17 4 -13 15 -51
20 -63 8z"/>
<path d="M486 2888 c-8 -18 -17 -44 -20 -58 -6 -21 -5 -22 4 -7 6 9 22 17 35
17 13 0 29 -8 34 -17 6 -10 11 -13 11 -6 0 16 -38 103 -45 103 -3 0 -12 -15
-19 -32z m33 -15 c11 -21 9 -23 -13 -23 -24 0 -25 2 -14 25 6 14 12 24 13 23
1 -2 8 -13 14 -25z"/>
<path d="M470 2045 l0 -56 33 3 c31 3 32 4 32 53 0 49 -1 50 -32 53 l-33 3 0
-56z m55 25 c0 -8 -10 -16 -22 -18 -18 -3 -23 2 -23 18 0 16 5 21 23 18 12 -2
22 -10 22 -18z m5 -50 c0 -15 -7 -20 -25 -20 -18 0 -25 5 -25 20 0 15 7 20 25
20 18 0 25 -5 25 -20z"/>
<path d="M476 1264 c-32 -31 -10 -94 33 -94 19 0 41 19 41 35 0 5 -5 2 -11 -7
-21 -37 -74 -11 -67 33 5 33 33 47 60 30 21 -13 22 -13 9 2 -17 21 -45 22 -65
1z"/>
<path d="M460 405 c0 -52 2 -55 24 -55 33 0 56 10 56 23 0 7 -4 7 -12 -1 -7
-7 -22 -12 -35 -12 -21 0 -23 5 -23 45 0 41 2 45 24 45 26 0 41 -14 49 -45 4
-19 5 -18 6 2 1 30 -25 53 -60 53 -29 0 -29 -1 -29 -55z"/>
</g>
</svg>
